Wavefont-Round.ufo
<glyph name="_1" format="2">
  <advance width="400"/>
  <unicode hex="101"/>
  <unicode hex="2E"/><unicode hex="2D"/><unicode hex="2013"/><unicode hex="2014"/><unicode hex="2015"/><unicode hex="2A"/><unicode hex="5F"/><unicode hex="2581"/><unicode hex="61"/>
  <outline>
    <component base="cap" xOffset="0" yOffset="0" />
    <component base="cap" xOffset="0" yOffset="-390" />
    <contour>
      <point x="0" y="200" type="line"/>
      <point x="0" y="-190" type="line"/>
      <point x="400" y="-190" type="line"/>
      <point x="400" y="200" type="line"/>
    </contour>
  </outline>
</glyph>
<glyph name="_2" format="2">
  <advance width="400"/>
  <unicode hex="102"/>
  <unicode hex="62"/>
  <outline>
    <component base="cap" xOffset="0" yOffset="0" />
    <component base="cap" xOffset="0" yOffset="-380" />
    <contour>
      <point x="0" y="200" type="line"/>
      <point x="0" y="-180" type="line"/>
      <point x="400" y="-180" type="line"/>
      <point x="400" y="200" type="line"/>
    </contour>
  </outline>
</glyph>
<glyph name="_8" format="2">
  <advance width="400"/>
  <unicode hex="108"/>
  <unicode hex="65"/>
  <outline>
    <component base="cap" xOffset="0" yOffset="0" />
    <component base="cap" xOffset="0" yOffset="-320" />
    <contour>
      <point x="0" y="200" type="line"/>
      <point x="0" y="-120" type="line"/>
      <point x="400" y="-120" type="line"/>
      <point x="400" y="200" type="line"/>
    </contour>
  </outline>
</glyph>
<glyph name="_14" format="2">
  <advance width="400"/>
  <unicode hex="10E"/>
  <unicode hex="2582"/><unicode hex="68"/>
  <outline>
    <component base="cap" xOffset="0" yOffset="0" />
    <component base="cap" xOffset="0" yOffset="-260" />
    <contour>
      <point x="0" y="200" type="line"/>
      <point x="0" y="-60" type="line"/>
      <point x="400" y="-60" type="line"/>
      <point x="400" y="200" type="line"/>
    </contour>
  </outline>
</glyph>
<glyph name="_24" format="2">
  <advance width="400"/>
  <unicode hex="118"/>
  <unicode hex="6D"/>
  <outline>
    <component base="cap" xOffset="0" yOffset="0" />
    <component base="cap" xOffset="0" yOffset="-160" />
    <contour>
      <point x="0" y="200" type="line"/>
      <point x="0" y="40" type="line"/>
      <point x="400" y="40" type="line"/>
      <point x="400" y="200" type="line"/>
    </contour>
  </outline>
</glyph>
<glyph name="_27" format="2">
  <advance width="400"/>
  <unicode hex="11B"/>
  
  <outline>
    <component base="cap" xOffset="0" yOffset="0" />
    <component base="cap" xOffset="0" yOffset="-130" />
    <contour>
      <point x="0" y="200" type="line"/>
      <point x="0" y="70" type="line"/>
      <point x="400" y="70" type="line"/>
      <point x="400" y="200" type="line"/>
    </contour>
  </outline>
</glyph>
<glyph name="_30" format="2">
  <advance width="400"/>
  <unicode hex="11E"/>
  <unicode hex="33"/><unicode hex="70"/>
  <outline>
    <component base="cap" xOffset="0" yOffset="0" />
    <component base="cap" xOffset="0" yOffset="-100" />
    <contour>
      <point x="0" y="200" type="line"/>
      <point x="0" y="100" type="line"/>
      <point x="400" y="100" type="line"/>
      <point x="400" y="200" type="line"/>
    </contour>
  </outline>
</glyph>
<glyph name="_36" format="2">
  <advance width="400"/>
  <unicode hex="124"/>
  <unicode hex="73"/>
  <outline>
    <component base="cap" xOffset="0" yOffset="0" />
    <component base="cap" xOffset="0" yOffset="-40" />
    <contour>
      <point x="0" y="200" type="line"/>
      <point x="0" y="160" type="line"/>
      <point x="400" y="160" type="line"/>
      <point x="400" y="200" type="line"/>
    </contour>
  </outline>
</glyph>
<glyph name="_40" format="2">
  <advance width="400"/>
  <unicode hex="128"/>
  <unicode hex="34"/><unicode hex="75"/>
  <outline>
    <component base="cap" xOffset="0" yOffset="0" />
    <component base="cap" xOffset="0" yOffset="0" />
    <contour>
      <point x="0" y="200" type="line"/>
      <point x="0" y="200" type="line"/>
      <point x="400" y="200" type="line"/>
      <point x="400" y="200" type="line"/>
    </contour>
  </outline>
</glyph>
<glyph name="_50" format="2">
  <advance width="400"/>
  <unicode hex="132"/>
  <unicode hex="35"/><unicode hex="7A"/>
  <outline>
    <component base="cap" xOffset="0" yOffset="0" />
    <component base="cap" xOffset="0" yOffset="100" />
    <contour>
      <point x="0" y="200" type="line"/>
      <point x="0" y="300" type="line"/>
      <point x="400" y="300" type="line"/>
      <point x="400" y="200" type="line"/>
    </contour>
  </outline>
</glyph>
<glyph name="_52" format="2">
  <advance width="400"/>
  <unicode hex="134"/>
  <unicode hex="41"/>
  <outline>
    <component base="cap" xOffset="0" yOffset="0" />
    <component base="cap" xOffset="0" yOffset="120" />
    <contour>
      <point x="0" y="200" type="line"/>
      <point x="0" y="320" type="line"/>
      <point x="400" y="320" type="line"/>
      <point x="400" y="200" type="line"/>
    </contour>
  </outline>
</glyph>
<glyph name="_61" format="2">
  <advance width="400"/>
  <unicode hex="13D"/>
  
  <outline>
    <component base="cap" xOffset="0" yOffset="0" />
    <component base="cap" xOffset="0" yOffset="210" />
    <contour>
      <point x="0" y="200" type="line"/>
      <point x="0" y="410" type="line"/>
      <point x="400" y="410" type="line"/>
      <point x="400" y="200" type="line"/>
    </contour>
  </outline>
</glyph>
<glyph name="_66" format="2">
  <advance width="400"/>
  <unicode hex="142"/>
  <unicode hex="48"/>
  <outline>
    <component base="cap" xOffset="0" yOffset="0" />
    <component base="cap" xOffset="0" yOffset="260" />
    <contour>
      <point x="0" y="200" type="line"/>
      <point x="0" y="460" type="line"/>
      <point x="400" y="460" type="line"/>
      <point x="400" y="200" type="line"/>
    </contour>
  </outline>
</glyph>
<glyph name="_72" format="2">
  <advance width="400"/>
  <unicode hex="148"/>
  <unicode hex="2586"/><unicode hex="4B"/>
  <outline>
    <component base="cap" xOffset="0" yOffset="0" />
    <component base="cap" xOffset="0" yOffset="320" />
    <contour>
      <point x="0" y="200" type="line"/>
      <point x="0" y="520" type="line"/>
      <point x="400" y="520" type="line"/>
      <point x="400" y="200" type="line"/>
    </contour>
  </outline>
</glyph>
<glyph name="_73" format="2">
  <advance width="400"/>
  <unicode hex="149"/>
  
  <outline>
    <component base="cap" xOffset="0" yOffset="0" />
    <component base="cap" xOffset="0" yOffset="330" />
    <contour>
      <point x="0" y="200" type="line"/>
      <point x="0" y="530" type="line"/>
      <point x="400" y="530" type="line"/>
      <point x="400" y="200" type="line"/>
    </contour>
  </outline>
</glyph>
<glyph name="_90" format="2">
  <advance width="400"/>
  <unicode hex="15A"/>
  <unicode hex="39"/><unicode hex="54"/>
  <outline>
    <component base="cap" xOffset="0" yOffset="0" />
    <component base="cap" xOffset="0" yOffset="500" />
    <contour>
      <point x="0" y="200" type="line"/>
      <point x="0" y="700" type="line"/>
      <point x="400" y="700" type="line"/>
      <point x="400" y="200" type="line"/>
    </contour>
  </outline>
</glyph>
<glyph name="_96" format="2">
  <advance width="400"/>
  <unicode hex="160"/>
  <unicode hex="57"/>
  <outline>
    <component base="cap" xOffset="0" yOffset="0" />
    <component base="cap" xOffset="0" yOffset="560" />
    <contour>
      <point x="0" y="200" type="line"/>
      <point x="0" y="760" type="line"/>
      <point x="400" y="760" type="line"/>
      <point x="400" y="200" type="line"/>
    </contour>
  </outline>
</glyph>
<glyph name="_100" format="2">
  <advance width="400"/>
  <unicode hex="164"/>
  <unicode hex="7C"/><unicode hex="2588"/><unicode hex="5A"/>
  <outline>
    <component base="cap" xOffset="0" yOffset="0" />
    <component base="cap" xOffset="0" yOffset="600" />
    <contour>
      <point x="0" y="200" type="line"/>
      <point x="0" y="800" type="line"/>
      <point x="400" y="800" type="line"/>
      <point x="400" y="200" type="line"/>
    </contour>
  </outline>
</glyph>
<glyph name="_104" format="2">
  <advance width="400"/>
  <unicode hex="168"/>
  
  <outline>
    <component base="cap" xOffset="0" yOffset="0" />
    <component base="cap" xOffset="0" yOffset="640" />
    <contour>
      <point x="0" y="200" type="line"/>
      <point x="0" y="840" type="line"/>
      <point x="400" y="840" type="line"/>
      <point x="400" y="200" type="line"/>
    </contour>
  </outline>
</glyph>
<glyph name="_1.center" format="2">
  <advance width="400"/>
  <unicode hex="401"/>
  
  <outline>
    <component base="cap" xOffset="0" yOffset="495" />
    <component base="cap" xOffset="0" yOffset="105" />
    <contour>
      <point x="0" y="695" type="line"/>
      <point x="0" y="305" type="line"/>
      <point x="400" y="305" type="line"/>
      <point x="400" y="695" type="line"/>
    </contour>
  </outline>
</glyph>
<glyph name="_12.center" format="2">
  <advance width="400"/>
  <unicode hex="40C"/>
  
  <outline>
    <component base="cap" xOffset="0" yOffset="440" />
    <component base="cap" xOffset="0" yOffset="160" />
    <contour>
      <point x="0" y="640" type="line"/>
      <point x="0" y="360" type="line"/>
      <point x="400" y="360" type="line"/>
      <point x="400" y="640" type="line"/>
    </contour>
  </outline>
</glyph>
<glyph name="_18.center" format="2">
  <advance width="400"/>
  <unicode hex="412"/>
  
  <outline>
    <component base="cap" xOffset="0" yOffset="410" />
    <component base="cap" xOffset="0" yOffset="190" />
    <contour>
      <point x="0" y="610" type="line"/>
      <point x="0" y="390" type="line"/>
      <point x="400" y="390" type="line"/>
      <point x="400" y="610" type="line"/>
    </contour>
  </outline>
</glyph>
<glyph name="_24.center" format="2">
  <advance width="400"/>
  <unicode hex="418"/>
  
  <outline>
    <component base="cap" xOffset="0" yOffset="380" />
    <component base="cap" xOffset="0" yOffset="220" />
    <contour>
      <point x="0" y="580" type="line"/>
      <point x="0" y="420" type="line"/>
      <point x="400" y="420" type="line"/>
      <point x="400" y="580" type="line"/>
    </contour>
  </outline>
</glyph>
<glyph name="_41.center" format="2">
  <advance width="400"/>
  <unicode hex="429"/>
  
  <outline>
    <component base="cap" xOffset="0" yOffset="295" />
    <component base="cap" xOffset="0" yOffset="305" />
    <contour>
      <point x="0" y="495" type="line"/>
      <point x="0" y="505" type="line"/>
      <point x="400" y="505" type="line"/>
      <point x="400" y="495" type="line"/>
    </contour>
  </outline>
</glyph>
<glyph name="_47.center" format="2">
  <advance width="400"/>
  <unicode hex="42F"/>
  
  <outline>
    <component base="cap" xOffset="0" yOffset="265" />
    <component base="cap" xOffset="0" yOffset="335" />
    <contour>
      <point x="0" y="465" type="line"/>
      <point x="0" y="535" type="line"/>
      <point x="400" y="535" type="line"/>
      <point x="400" y="465" type="line"/>
    </contour>
  </outline>
</glyph>
<glyph name="_48.center" format="2">
  <advance width="400"/>
  <unicode hex="430"/>
  
  <outline>
    <component base="cap" xOffset="0" yOffset="260" />
    <component base="cap" xOffset="0" yOffset="340" />
    <contour>
      <point x="0" y="460" type="line"/>
      <point x="0" y="540" type="line"/>
      <point x="400" y="540" type="line"/>
      <point x="400" y="460" type="line"/>
    </contour>
  </outline>
</glyph>
<glyph name="_51.center" format="2">
  <advance width="400"/>
  <unicode hex="433"/>
  
  <outline>
    <component base="cap" xOffset="0" yOffset="245" />
    <component base="cap" xOffset="0" yOffset="355" />
    <contour>
      <point x="0" y="445" type="line"/>
      <point x="0" y="555" type="line"/>
      <point x="400" y="555" type="line"/>
      <point x="400" y="445" type="line"/>
    </contour>
  </outline>
</glyph>
<glyph name="_54.center" format="2">
  <advance width="400"/>
  <unicode hex="436"/>
  
  <outline>
    <component base="cap" xOffset="0" yOffset="230" />
    <component base="cap" xOffset="0" yOffset="370" />
    <contour>
      <point x="0" y="430" type="line"/>
      <point x="0" y="570" type="line"/>
      <point x="400" y="570" type="line"/>
      <point x="400" y="430" type="line"/>
    </contour>
  </outline>
</glyph>
<glyph name="_65.center" format="2">
  <advance width="400"/>
  <unicode hex="441"/>
  
  <outline>
    <component base="cap" xOffset="0" yOffset="175" />
    <component base="cap" xOffset="0" yOffset="425" />
    <contour>
      <point x="0" y="375" type="line"/>
      <point x="0" y="625" type="line"/>
      <point x="400" y="625" type="line"/>
      <point x="400" y="375" type="line"/>
    </contour>
  </outline>
</glyph>
<glyph name="_66.center" format="2">
  <advance width="400"/>
  <unicode hex="442"/>
  
  <outline>
    <component base="cap" xOffset="0" yOffset="170" />
    <component base="cap" xOffset="0" yOffset="430" />
    <contour>
      <point x="0" y="370" type="line"/>
      <point x="0" y="630" type="line"/>
      <point x="400" y="630" type="line"/>
      <point x="400" y="370" type="line"/>
    </contour>
  </outline>
</glyph>
<glyph name="_67.center" format="2">
  <advance width="400"/>
  <unicode hex="443"/>
  
  <outline>
    <component base="cap" xOffset="0" yOffset="165" />
    <component base="cap" xOffset="0" yOffset="435" />
    <contour>
      <point x="0" y="365" type="line"/>
      <point x="0" y="635" type="line"/>
      <point x="400" y="635" type="line"/>
      <point x="400" y="365" type="line"/>
    </contour>
  </outline>
</glyph>
<glyph name="_74.center" format="2">
  <advance width="400"/>
  <unicode hex="44A"/>
  
  <outline>
    <component base="cap" xOffset="0" yOffset="130" />
    <component base="cap" xOffset="0" yOffset="470" />
    <contour>
      <point x="0" y="330" type="line"/>
      <point x="0" y="670" type="line"/>
      <point x="400" y="670" type="line"/>
      <point x="400" y="330" type="line"/>
    </contour>
  </outline>
</glyph>
<glyph name="_90.center" format="2">
  <advance width="400"/>
  <unicode hex="45A"/>
  
  <outline>
    <component base="cap" xOffset="0" yOffset="50" />
    <component base="cap" xOffset="0" yOffset="550" />
    <contour>
      <point x="0" y="250" type="line"/>
      <point x="0" y="750" type="line"/>
      <point x="400" y="750" type="line"/>
      <point x="400" y="250" type="line"/>
    </contour>
  </outline>
</glyph>
<glyph name="_104.center" format="2">
  <advance width="400"/>
  <unicode hex="468"/>
  
  <outline>
    <component base="cap" xOffset="0" yOffset="-20" />
    <component base="cap" xOffset="0" yOffset="620" />
    <contour>
      <point x="0" y="180" type="line"/>
      <point x="0" y="820" type="line"/>
      <point x="400" y="820" type="line"/>
      <point x="400" y="180" type="line"/>
    </contour>
  </outline>
</glyph>
<glyph name="_106.center" format="2">
  <advance width="400"/>
  <unicode hex="46A"/>
  
  <outline>
    <component base="cap" xOffset="0" yOffset="-30" />
    <component base="cap" xOffset="0" yOffset="630" />
    <contour>
      <point x="0" y="170" type="line"/>
      <point x="0" y="830" type="line"/>
      <point x="400" y="830" type="line"/>
      <point x="400" y="170" type="line"/>
    </contour>
  </outline>
</glyph>
<glyph name="_107.center" format="2">
  <advance width="400"/>
  <unicode hex="46B"/>
  
  <outline>
    <component base="cap" xOffset="0" yOffset="-35" />
    <component base="cap" xOffset="0" yOffset="635" />
    <contour>
      <point x="0" y="165" type="line"/>
      <point x="0" y="835" type="line"/>
      <point x="400" y="835" type="line"/>
      <point x="400" y="165" type="line"/>
    </contour>
  </outline>
</glyph>
<glyph name="_13.clip.center" format="2">
  <advance width="400"/>
  
  <outline>
    <contour>
        <point x="0" y="535.75"/>

        <point x="29.249999999999996" y="565"/>
        <point x="65" y="565" type="curve" smooth="yes"/>
        <point x="335" y="565" type="line"/>
        <point x="370.75" y="565"/>

        <point x="400" y="535.75"/>
        <point x="400" y="500" type="curve" smooth="yes"/>
        <point x="400" y="500" type="line"/>
        <point x="400" y="464.25"/>

        <point x="370.75" y="435"/>
        <point x="335" y="435" type="curve" smooth="yes"/>
        <point x="65" y="435" type="line"/>
        <point x="29.249999999999996" y="435"/>

        <point x="0" y="464.25"/>
        <point x="0" y="500" type="curve" smooth="yes"/>
        <point x="0" y="500" type="line"/>
    </contour>
  </outline>
</glyph>
<glyph name="_2.clip.center" format="2">
  <advance width="400"/>
  
  <outline>
    <contour>
        <point x="0" y="505.5"/>

        <point x="4.5" y="510"/>
        <point x="10" y="510" type="curve" smooth="yes"/>
        <point x="390" y="510" type="line"/>
        <point x="395.5" y="510"/>

        <point x="400" y="505.5"/>
        <point x="400" y="500" type="curve" smooth="yes"/>
        <point x="400" y="500" type="line"/>
        <point x="400" y="494.5"/>

        <point x="395.5" y="490"/>
        <point x="390" y="490" type="curve" smooth="yes"/>
        <point x="10" y="490" type="line"/>
        <point x="4.5" y="490"/>

        <point x="0" y="494.5"/>
        <point x="0" y="500" type="curve" smooth="yes"/>
        <point x="0" y="500" type="line"/>
    </contour>
  </outline>
</glyph>
<glyph name="_20.clip" format="2">
  <advance width="400"/>
  
  <outline>
    <contour>
        <point x="0" y="155"/>

        <point x="44.99999999999999" y="200"/>
        <point x="100" y="200" type="curve" smooth="yes"/>
        <point x="300" y="200" type="line"/>
        <point x="355" y="200"/>

        <point x="400" y="155"/>
        <point x="400" y="100" type="curve" smooth="yes"/>
        <point x="400" y="100" type="line"/>
        <point x="400" y="44.99999999999999"/>

        <point x="355" y="0"/>
        <point x="300" y="0" type="curve" smooth="yes"/>
        <point x="100" y="0" type="line"/>
        <point x="44.99999999999999" y="0"/>

        <point x="0" y="44.99999999999999"/>
        <point x="0" y="100" type="curve" smooth="yes"/>
        <point x="0" y="100" type="line"/>
    </contour>
  </outline>
</glyph>
<glyph name="_24.clip.center" format="2">
  <advance width="400"/>
  
  <outline>
    <contour>
        <point x="0" y="566"/>

        <point x="53.99999999999999" y="620"/>
        <point x="120" y="620" type="curve" smooth="yes"/>
        <point x="280" y="620" type="line"/>
        <point x="346" y="620"/>

        <point x="400" y="566"/>
        <point x="400" y="500" type="curve" smooth="yes"/>
        <point x="400" y="500" type="line"/>
        <point x="400" y="434"/>

        <point x="346" y="380"/>
        <point x="280" y="380" type="curve" smooth="yes"/>
        <point x="120" y="380" type="line"/>
        <point x="53.99999999999999" y="380"/>

        <point x="0" y="434"/>
        <point x="0" y="500" type="curve" smooth="yes"/>
        <point x="0" y="500" type="line"/>
    </contour>
  </outline>
</glyph>
<glyph name="_26.clip.center" format="2">
  <advance width="400"/>
  
  <outline>
    <contour>
        <point x="0" y="571.5"/>

        <point x="58.49999999999999" y="630"/>
        <point x="130" y="630" type="curve" smooth="yes"/>
        <point x="270" y="630" type="line"/>
        <point x="341.5" y="630"/>

        <point x="400" y="571.5"/>
        <point x="400" y="500" type="curve" smooth="yes"/>
        <point x="400" y="500" type="line"/>
        <point x="400" y="428.5"/>

        <point x="341.5" y="370"/>
        <point x="270" y="370" type="curve" smooth="yes"/>
        <point x="130" y="370" type="line"/>
        <point x="58.49999999999999" y="370"/>

        <point x="0" y="428.5"/>
        <point x="0" y="500" type="curve" smooth="yes"/>
        <point x="0" y="500" type="line"/>
    </contour>
  </outline>
</glyph>
<glyph name="_27.clip.center" format="2">
  <advance width="400"/>
  
  <outline>
    <contour>
        <point x="0" y="574.25"/>

        <point x="60.74999999999999" y="635"/>
        <point x="135" y="635" type="curve" smooth="yes"/>
        <point x="265" y="635" type="line"/>
        <point x="339.25" y="635"/>

        <point x="400" y="574.25"/>
        <point x="400" y="500" type="curve" smooth="yes"/>
        <point x="400" y="500" type="line"/>
        <point x="400" y="425.75"/>

        <point x="339.25" y="365"/>
        <point x="265" y="365" type="curve" smooth="yes"/>
        <point x="135" y="365" type="line"/>
        <point x="60.74999999999999" y="365"/>

        <point x="0" y="425.75"/>
        <point x="0" y="500" type="curve" smooth="yes"/>
        <point x="0" y="500" type="line"/>
    </contour>
  </outline>
</glyph>
<glyph name="_27.clip" format="2">
  <advance width="400"/>
  
  <outline>
    <contour>
        <point x="0" y="209.25"/>

        <point x="60.74999999999999" y="270"/>
        <point x="135" y="270" type="curve" smooth="yes"/>
        <point x="265" y="270" type="line"/>
        <point x="339.25" y="270"/>

        <point x="400" y="209.25"/>
        <point x="400" y="135" type="curve" smooth="yes"/>
        <point x="400" y="135" type="line"/>
        <point x="400" y="60.74999999999999"/>

        <point x="339.25" y="0"/>
        <point x="265" y="0" type="curve" smooth="yes"/>
        <point x="135" y="0" type="line"/>
        <point x="60.74999999999999" y="0"/>

        <point x="0" y="60.74999999999999"/>
        <point x="0" y="135" type="curve" smooth="yes"/>
        <point x="0" y="135" type="line"/>
    </contour>
  </outline>
</glyph>
<glyph name="_29.clip.center" format="2">
  <advance width="400"/>
  
  <outline>
    <contour>
        <point x="0" y="579.75"/>

        <point x="65.25" y="645"/>
        <point x="145" y="645" type="curve" smooth="yes"/>
        <point x="255" y="645" type="line"/>
        <point x="334.75" y="645"/>

        <point x="400" y="579.75"/>
        <point x="400" y="500" type="curve" smooth="yes"/>
        <point x="400" y="500" type="line"/>
        <point x="400" y="420.25"/>

        <point x="334.75" y="355"/>
        <point x="255" y="355" type="curve" smooth="yes"/>
        <point x="145" y="355" type="line"/>
        <point x="65.25" y="355"/>

        <point x="0" y="420.25"/>
        <point x="0" y="500" type="curve" smooth="yes"/>
        <point x="0" y="500" type="line"/>
    </contour>
  </outline>
</glyph>
<glyph name="_32.clip.center" format="2">
  <advance width="400"/>
  
  <outline>
    <contour>
        <point x="0" y="588"/>

        <point x="72" y="660"/>
        <point x="160" y="660" type="curve" smooth="yes"/>
        <point x="240" y="660" type="line"/>
        <point x="328" y="660"/>

        <point x="400" y="588"/>
        <point x="400" y="500" type="curve" smooth="yes"/>
        <point x="400" y="500" type="line"/>
        <point x="400" y="412"/>

        <point x="328" y="340"/>
        <point x="240" y="340" type="curve" smooth="yes"/>
        <point x="160" y="340" type="line"/>
        <point x="72" y="340"/>

        <point x="0" y="412"/>
        <point x="0" y="500" type="curve" smooth="yes"/>
        <point x="0" y="500" type="line"/>
    </contour>
  </outline>
</glyph>
<glyph name="_35.clip.center" format="2">
  <advance width="400"/>
  
  <outline>
    <contour>
        <point x="0" y="596.25"/>

        <point x="78.74999999999999" y="675"/>
        <point x="175" y="675" type="curve" smooth="yes"/>
        <point x="225" y="675" type="line"/>
        <point x="321.25" y="675"/>

        <point x="400" y="596.25"/>
        <point x="400" y="500" type="curve" smooth="yes"/>
        <point x="400" y="500" type="line"/>
        <point x="400" y="403.75"/>

        <point x="321.25" y="325"/>
        <point x="225" y="325" type="curve" smooth="yes"/>
        <point x="175" y="325" type="line"/>
        <point x="78.74999999999999" y="325"/>

        <point x="0" y="403.75"/>
        <point x="0" y="500" type="curve" smooth="yes"/>
        <point x="0" y="500" type="line"/>
    </contour>
  </outline>
</glyph>
<glyph name="_36.clip.center" format="2">
  <advance width="400"/>
  
  <outline>
    <contour>
        <point x="0" y="599"/>

        <point x="80.99999999999999" y="680"/>
        <point x="180" y="680" type="curve" smooth="yes"/>
        <point x="220" y="680" type="line"/>
        <point x="319" y="680"/>

        <point x="400" y="599"/>
        <point x="400" y="500" type="curve" smooth="yes"/>
        <point x="400" y="500" type="line"/>
        <point x="400" y="401"/>

        <point x="319" y="320"/>
        <point x="220" y="320" type="curve" smooth="yes"/>
        <point x="180" y="320" type="line"/>
        <point x="80.99999999999999" y="320"/>

        <point x="0" y="401"/>
        <point x="0" y="500" type="curve" smooth="yes"/>
        <point x="0" y="500" type="line"/>
    </contour>
  </outline>
</glyph>
<glyph name="_37.clip" format="2">
  <advance width="400"/>
  
  <outline>
    <contour>
        <point x="0" y="286.75"/>

        <point x="83.24999999999999" y="370"/>
        <point x="185" y="370" type="curve" smooth="yes"/>
        <point x="215" y="370" type="line"/>
        <point x="316.75" y="370"/>

        <point x="400" y="286.75"/>
        <point x="400" y="185" type="curve" smooth="yes"/>
        <point x="400" y="185" type="line"/>
        <point x="400" y="83.24999999999999"/>

        <point x="316.75" y="0"/>
        <point x="215" y="0" type="curve" smooth="yes"/>
        <point x="185" y="0" type="line"/>
        <point x="83.24999999999999" y="0"/>

        <point x="0" y="83.24999999999999"/>
        <point x="0" y="185" type="curve" smooth="yes"/>
        <point x="0" y="185" type="line"/>
    </contour>
  </outline>
</glyph>
<glyph name="_39.clip" format="2">
  <advance width="400"/>
  
  <outline>
    <contour>
        <point x="0" y="302.25"/>

        <point x="87.74999999999999" y="390"/>
        <point x="195" y="390" type="curve" smooth="yes"/>
        <point x="205" y="390" type="line"/>
        <point x="312.25" y="390"/>

        <point x="400" y="302.25"/>
        <point x="400" y="195" type="curve" smooth="yes"/>
        <point x="400" y="195" type="line"/>
        <point x="400" y="87.74999999999999"/>

        <point x="312.25" y="0"/>
        <point x="205" y="0" type="curve" smooth="yes"/>
        <point x="195" y="0" type="line"/>
        <point x="87.74999999999999" y="0"/>

        <point x="0" y="87.74999999999999"/>
        <point x="0" y="195" type="curve" smooth="yes"/>
        <point x="0" y="195" type="line"/>
    </contour>
  </outline>
</glyph>
<glyph name="_6.clip.center" format="2">
  <advance width="400"/>
  
  <outline>
    <contour>
        <point x="0" y="516.5"/>

        <point x="13.499999999999998" y="530"/>
        <point x="30" y="530" type="curve" smooth="yes"/>
        <point x="370" y="530" type="line"/>
        <point x="386.5" y="530"/>

        <point x="400" y="516.5"/>
        <point x="400" y="500" type="curve" smooth="yes"/>
        <point x="400" y="500" type="line"/>
        <point x="400" y="483.5"/>

        <point x="386.5" y="470"/>
        <point x="370" y="470" type="curve" smooth="yes"/>
        <point x="30" y="470" type="line"/>
        <point x="13.499999999999998" y="470"/>

        <point x="0" y="483.5"/>
        <point x="0" y="500" type="curve" smooth="yes"/>
        <point x="0" y="500" type="line"/>
    </contour>
  </outline>
</glyph>
<glyph name="_9.clip.center" format="2">
  <advance width="400"/>
  
  <outline>
    <contour>
        <point x="0" y="524.75"/>

        <point x="20.249999999999996" y="545"/>
        <point x="45" y="545" type="curve" smooth="yes"/>
        <point x="355" y="545" type="line"/>
        <point x="379.75" y="545"/>

        <point x="400" y="524.75"/>
        <point x="400" y="500" type="curve" smooth="yes"/>
        <point x="400" y="500" type="line"/>
        <point x="400" y="475.25"/>

        <point x="379.75" y="455"/>
        <point x="355" y="455" type="curve" smooth="yes"/>
        <point x="45" y="455" type="line"/>
        <point x="20.249999999999996" y="455"/>

        <point x="0" y="475.25"/>
        <point x="0" y="500" type="curve" smooth="yes"/>
        <point x="0" y="500" type="line"/>
    </contour>
  </outline>
</glyph>
